<?xml version="1.0" standalone="no"?>
<!DOCTYPE svg PUBLIC "-//W3C//DTD SVG 20010904//EN"
 "http://www.w3.org/TR/2001/REC-SVG-20010904/DTD/svg10.dtd">
<svg version="1.0" xmlns="http://www.w3.org/2000/svg"
 width="236.000000pt" height="236.000000pt" viewBox="0 0 236.000000 236.000000"
 preserveAspectRatio="xMidYMid meet">
<metadata>
Created by potrace 1.11, written by Peter Selinger 2001-2013
</metadata>
<g transform="translate(0.000000,236.000000) scale(0.100000,-0.100000)"
fill="#000000" stroke="none">
<path d="M1151 2286 c-22 -23 -28 -34 -17 -32 9 1 23 11 31 22 19 23 14 29 91
-111 167 -300 214 -386 214 -389 0 -2 16 -32 35 -66 19 -34 35 -69 35 -78 -1
-10 -91 -93 -202 -187 -110 -93 -263 -223 -340 -288 -77 -66 -141 -117 -142
-115 -1 1 -24 40 -50 86 -27 46 -51 81 -53 78 -3 -3 17 -44 45 -91 l50 -86
-54 -77 c-29 -42 -99 -140 -154 -217 -56 -77 -105 -147 -111 -155 -7 -13 -12
-11 -29 10 -24 30 -26 19 -3 -16 18 -28 522 -409 530 -401 3 3 -108 90 -246
192 -159 118 -249 191 -244 198 6 10 130 186 231 326 18 25 44 63 59 84 14 20
28 37 32 37 3 0 49 -32 101 -70 52 -39 99 -70 104 -70 13 0 8 4 -101 85 -51
37 -93 69 -93 70 0 4 147 130 296 256 107 90 141 119 292 249 50 44 94 80 97
80 5 0 299 -210 530 -379 77 -56 140 -105 140 -109 0 -7 -281 -267 -460 -426
-55 -49 -109 -98 -121 -110 -12 -11 -35 -33 -52 -48 l-32 -28 -234 175 c-129
96 -239 175 -245 175 -5 0 -13 -5 -17 -11 -4 -7 -1 -10 7 -7 12 4 474 -328
474 -341 0 -12 -152 -221 -169 -233 -7 -5 -5 -8 4 -8 14 0 39 32 157 195 20
28 95 102 166 165 71 63 163 147 206 186 221 204 286 263 288 260 2 -2 -58
-95 -133 -207 -133 -200 -138 -206 -252 -302 -64 -54 -129 -110 -144 -125 -14
-15 -45 -43 -69 -62 -24 -19 -71 -61 -105 -93 -34 -32 -82 -74 -108 -94 -25
-19 -46 -37 -46 -39 0 -10 18 -2 40 19 14 12 39 33 55 45 17 13 50 42 74 65
25 23 57 51 73 63 15 11 56 47 91 80 65 60 135 121 219 190 42 35 77 84 284
400 19 28 34 56 34 61 0 5 9 18 20 28 25 22 26 43 3 52 -20 8 -101 65 -268
188 -60 45 -139 102 -175 127 -36 25 -100 70 -144 102 l-78 56 -131 238 c-164
299 -226 415 -227 425 0 7 31 -15 138 -96 6 -5 12 -6 12 -1 0 8 -91 79 -151
117 -25 16 -26 16 -58 -17z"/>
<path d="M1020 2173 c-25 -21 -70 -61 -100 -89 -30 -29 -77 -72 -104 -95 -292
-257 -339 -304 -403 -404 -98 -152 -117 -181 -197 -303 l-74 -113 51 -82 c28
-45 72 -118 97 -162 76 -130 178 -296 185 -303 16 -15 -44 92 -155 279 -165
276 -162 269 -128 293 11 8 17 19 13 25 -3 6 2 11 12 11 12 0 14 3 6 8 -7 5
20 54 83 152 52 80 113 174 135 208 l41 64 24 -42 c13 -23 24 -44 24 -46 0 -1
32 -58 71 -126 40 -67 80 -137 90 -154 32 -57 44 -74 53 -74 4 0 2 10 -6 23
-20 29 -211 363 -231 403 l-16 31 105 93 c57 51 121 109 142 129 20 20 93 88
162 150 164 150 175 161 170 161 -3 0 -25 -17 -50 -37z"/>
<path d="M1540 2053 c0 -8 23 -25 146 -113 34 -25 85 -63 112 -85 47 -39 71
-56 101 -75 12 -7 12 -12 -3 -34 -18 -29 -11 -36 10 -9 7 10 14 16 16 13 2 -3
66 -129 141 -280 75 -152 144 -284 152 -295 25 -31 19 -19 -144 305 l-154 305
-175 130 c-191 142 -202 150 -202 138z"/>
</g>
</svg>
