<?xml version="1.0" standalone="no"?>
<!DOCTYPE svg PUBLIC "-//W3C//DTD SVG 20010904//EN"
 "http://www.w3.org/TR/2001/REC-SVG-20010904/DTD/svg10.dtd">
<svg version="1.0" xmlns="http://www.w3.org/2000/svg"
 width="236.000000pt" height="236.000000pt" viewBox="0 0 236.000000 236.000000"
 preserveAspectRatio="xMidYMid meet">
<metadata>
Created by potrace 1.11, written by Peter Selinger 2001-2013
</metadata>
<g transform="translate(0.000000,236.000000) scale(0.100000,-0.100000)"
fill="#000000" stroke="none">
<path d="M0 1180 l0 -1180 1180 0 1180 0 0 1180 0 1180 -1180 0 -1180 0 0
-1180z m2339 1156 c8 -10 10 -323 9 -1167 l-3 -1154 -1154 -3 c-844 -1 -1157
1 -1167 9 -12 10 -14 205 -14 1164 0 633 3 1155 7 1158 3 4 525 7 1158 7 959
0 1154 -2 1164 -14z"/>
<path d="M1136 2290 c-20 -22 -40 -40 -46 -40 -5 0 -10 -7 -10 -15 0 -8 -5
-15 -11 -15 -14 0 -84 -55 -159 -126 -30 -29 -77 -72 -105 -95 -206 -182 -347
-315 -366 -347 -33 -54 -161 -252 -235 -363 -35 -52 -66 -103 -70 -112 -3 -10
14 -48 48 -103 83 -135 96 -157 108 -184 6 -14 22 -39 36 -57 13 -17 24 -35
24 -38 0 -3 11 -21 25 -39 14 -18 25 -37 25 -43 0 -6 9 -22 20 -36 11 -13 31
-47 45 -75 25 -51 119 -132 298 -261 36 -25 100 -73 143 -105 43 -33 90 -65
103 -72 13 -7 27 -16 30 -21 13 -18 134 -103 147 -103 31 0 10 31 -53 79 -38
28 -73 51 -79 51 -7 0 -14 6 -17 14 -6 15 -48 47 -326 251 -82 61 -151 115
-154 120 -2 6 42 75 100 155 57 80 112 156 121 170 9 14 31 44 50 67 39 48 31
51 155 -42 68 -51 79 -65 52 -65 -8 0 -15 -7 -15 -15 0 -8 -7 -15 -16 -15 -9
0 -18 -9 -21 -20 -3 -11 -11 -20 -17 -20 -6 0 -19 -8 -28 -17 -26 -29 -61 -53
-76 -53 -8 0 -36 16 -62 35 -26 19 -55 35 -64 35 -32 0 -15 -28 42 -68 64 -45
102 -85 102 -107 0 -8 5 -15 10 -15 6 0 10 -9 10 -20 0 -11 7 -23 15 -26 8 -4
15 -15 15 -25 0 -10 5 -19 10 -19 6 0 10 -9 10 -20 0 -11 3 -20 8 -20 4 0 15
-18 25 -40 9 -22 21 -40 27 -40 5 0 10 -9 10 -20 0 -11 5 -20 10 -20 6 0 10
-7 10 -15 0 -8 5 -15 10 -15 6 0 10 -9 10 -20 0 -11 5 -20 10 -20 6 0 10 -9
10 -20 0 -11 5 -20 10 -20 6 0 10 -9 10 -20 0 -11 5 -20 10 -20 6 0 10 -7 10
-15 0 -8 7 -15 15 -15 8 0 15 5 15 11 0 20 -61 139 -71 139 -5 0 -9 8 -9 18
-1 9 -12 35 -26 57 -13 22 -27 48 -30 58 -4 9 -10 17 -15 17 -5 0 -9 6 -9 13
0 20 -51 117 -61 117 -5 0 -9 7 -9 16 0 9 -9 29 -21 45 -16 23 -17 29 -6 29 8
0 17 7 21 15 3 8 12 15 21 15 8 0 15 7 15 15 0 8 7 15 15 15 8 0 15 7 15 15 0
8 7 15 16 15 9 0 18 9 21 20 3 11 11 20 18 20 7 0 15 7 19 15 3 8 10 15 15 15
8 0 163 -110 399 -284 l62 -47 -46 -67 c-40 -57 -80 -111 -117 -157 -4 -5 -35
-46 -68 -90 -33 -44 -66 -88 -74 -98 -20 -24 -19 -37 4 -37 11 0 35 21 57 50
21 28 40 46 42 40 6 -17 36 -11 62 13 14 12 39 33 55 45 17 13 50 42 74 65 25
23 57 51 73 63 15 11 56 47 91 80 65 60 135 121 219 190 42 35 77 84 284 400
19 28 34 56 34 61 0 5 9 18 20 28 23 20 25 45 8 78 -6 12 -15 29 -19 37 -4 8
-73 146 -153 305 l-145 290 -116 85 c-64 47 -147 109 -185 138 -37 28 -78 52
-89 52 -12 0 -21 6 -21 15 0 8 -17 26 -37 40 -21 14 -56 39 -78 56 -22 16 -56
41 -75 54 -19 14 -55 41 -80 60 -25 19 -52 35 -61 35 -9 0 -33 -18 -53 -40z
m77 -82 c15 -29 46 -82 68 -118 22 -36 52 -87 66 -115 14 -27 41 -77 59 -110
18 -33 48 -89 65 -125 17 -36 38 -73 47 -84 16 -17 14 -21 -48 -78 -102 -94
-140 -122 -140 -104 0 9 -8 16 -20 16 -11 0 -20 6 -20 13 0 7 -16 19 -35 27
-19 8 -35 20 -35 27 0 7 -13 21 -28 31 -16 9 -88 60 -161 112 -119 85 -132 96
-126 118 3 14 13 31 20 39 8 8 18 25 21 39 3 13 9 24 13 24 4 0 14 12 22 28 7
15 26 46 41 69 15 23 28 46 28 52 0 6 5 11 10 11 6 0 10 5 10 11 0 6 14 30 30
54 17 24 30 48 30 54 0 6 5 11 10 11 6 0 10 6 10 13 0 13 19 37 30 37 3 0 18
-24 33 -52z m-120 -8 c-3 -11 -9 -20 -14 -20 -5 0 -9 -7 -9 -15 0 -8 -4 -15
-10 -15 -5 0 -10 -7 -10 -15 0 -8 -4 -15 -10 -15 -5 0 -10 -4 -10 -9 0 -5 -36
-66 -80 -136 -44 -70 -80 -130 -80 -134 0 -5 -33 -37 -72 -72 -40 -35 -97 -88
-126 -116 -29 -29 -57 -53 -63 -53 -5 0 -9 -7 -9 -15 0 -8 -6 -15 -13 -15 -18
0 -38 25 -59 71 l-16 36 92 81 c51 44 112 100 137 124 107 105 288 268 295
268 5 0 20 16 33 35 27 40 31 43 24 15z m220 -5 c14 -11 43 -31 63 -45 20 -14
53 -40 74 -57 20 -18 47 -33 59 -33 11 0 21 -6 21 -12 0 -13 103 -98 119 -98
4 0 16 -9 26 -20 10 -11 23 -20 30 -20 6 0 26 -15 44 -34 18 -19 57 -51 87
-72 29 -22 54 -42 54 -45 0 -4 -10 -17 -23 -30 -13 -13 -39 -46 -57 -74 -19
-27 -37 -51 -42 -53 -4 -2 -8 -8 -8 -12 0 -5 -10 -20 -22 -33 l-23 -24 -71 53
c-54 40 -78 66 -98 106 -15 29 -42 80 -61 113 -19 33 -46 83 -61 110 -14 28
-48 88 -76 135 -91 154 -101 193 -35 145z m-384 -473 c69 -56 119 -92 129 -92
4 0 19 -11 32 -25 13 -14 29 -25 35 -25 6 0 22 -11 35 -25 13 -14 28 -25 34
-25 6 0 22 -12 35 -25 13 -14 32 -25 42 -25 10 0 19 -4 19 -10 0 -5 7 -10 15
-10 27 0 15 -14 -76 -90 -50 -41 -152 -127 -227 -191 l-137 -116 -47 76 c-26
42 -52 85 -57 96 -5 11 -21 37 -35 58 -14 21 -26 40 -26 43 0 2 -25 47 -55 99
l-55 96 30 29 c17 17 35 30 40 30 5 0 13 6 17 13 4 6 28 29 53 49 25 20 63 52
85 72 22 20 46 36 54 36 8 0 35 -17 60 -38z m1009 -34 c13 -34 51 -109 102
-208 16 -30 32 -62 34 -70 3 -8 10 -22 15 -30 5 -8 21 -44 37 -80 15 -36 35
-71 43 -77 8 -7 12 -13 8 -13 -12 0 -119 72 -187 126 -73 57 -179 132 -216
152 -31 17 -30 30 4 69 42 47 62 73 62 79 0 3 10 16 23 29 12 13 28 31 35 40
19 22 26 19 40 -17z m-1441 -85 c31 -40 38 -93 12 -93 -9 0 -53 -38 -126 -107
-18 -18 -38 -33 -43 -33 -6 0 -10 -4 -10 -9 0 -5 -7 -11 -14 -14 -11 -4 -13
-1 -9 11 11 28 163 262 171 262 3 0 11 -8 19 -17z m1121 -55 c31 -22 59 -43
61 -45 7 -5 -22 -57 -36 -66 -7 -4 -13 -14 -13 -21 0 -8 -7 -16 -15 -20 -8 -3
-15 -10 -15 -16 0 -17 -39 -50 -60 -50 -11 0 -20 4 -20 8 0 10 -87 72 -101 72
-6 0 -17 7 -25 15 -13 12 -9 19 28 53 24 21 61 55 83 75 22 20 44 37 48 37 4
0 34 -19 65 -42z m-1007 -149 c30 -50 64 -110 77 -133 12 -22 29 -46 37 -52 8
-6 15 -17 15 -23 0 -7 20 -46 44 -88 l45 -76 -52 -74 c-29 -42 -61 -88 -72
-104 -25 -37 -40 -36 -72 1 -13 17 -33 30 -44 30 -10 0 -19 5 -19 10 0 6 -4
10 -9 10 -6 0 -24 13 -41 29 -18 16 -44 35 -58 42 -14 8 -37 24 -50 37 -14 12
-31 22 -37 22 -7 0 -15 7 -19 15 -3 8 -12 15 -21 15 -8 0 -15 6 -15 13 0 7
-12 20 -27 29 -49 29 -99 79 -85 84 6 3 12 10 12 15 0 14 33 49 47 49 7 0 13
5 13 10 0 6 7 10 15 10 8 0 15 7 15 15 0 8 7 15 15 15 8 0 15 7 15 15 0 8 7
15 15 15 9 0 18 7 21 15 4 8 11 15 16 15 6 0 28 18 49 40 22 22 43 40 49 40 5
0 10 7 10 15 0 8 7 15 15 15 8 0 15 5 15 10 0 6 6 10 14 10 7 0 38 -41 67 -91z
m1231 -10 c35 -25 106 -77 158 -116 52 -38 121 -88 152 -111 l58 -42 -171
-158 c-94 -86 -175 -158 -180 -160 -5 -2 -9 3 -9 11 0 9 -4 17 -8 19 -4 2 -20
29 -36 61 -15 31 -32 57 -37 57 -5 0 -9 7 -9 16 0 9 -8 28 -17 42 -29 44 -42
65 -61 102 -31 59 -63 114 -84 142 -19 27 -17 68 3 68 5 0 9 9 9 20 0 11 7 20
15 20 8 0 15 6 15 14 0 8 7 16 15 20 8 3 15 12 15 20 0 7 7 16 15 20 8 3 15
12 15 20 0 24 23 24 52 2 14 -12 55 -42 90 -67z m-429 -19 c5 0 23 -11 41 -25
18 -14 38 -25 43 -25 6 0 13 -6 15 -12 7 -17 -1 -38 -14 -38 -5 0 -42 -31 -81
-70 -39 -38 -73 -70 -76 -70 -2 0 -24 -20 -48 -45 -23 -25 -46 -45 -49 -45
-12 0 -114 -105 -114 -117 0 -7 -7 -13 -15 -13 -9 0 -18 -7 -21 -15 -6 -15
-23 -6 -101 55 -18 14 -46 35 -63 48 -16 13 -30 27 -30 31 0 7 67 66 295 257
66 56 129 111 139 123 l20 22 26 -31 c14 -16 29 -30 33 -30z m158 -140 c5 0 9
-7 9 -15 0 -8 5 -15 10 -15 6 0 10 -7 10 -15 0 -8 5 -15 10 -15 6 0 10 -9 10
-20 0 -11 5 -20 10 -20 6 0 10 -9 10 -20 0 -11 4 -20 9 -20 5 0 12 -14 16 -31
4 -17 12 -32 19 -35 7 -3 19 -20 26 -39 8 -19 17 -35 22 -35 4 0 8 -8 8 -18 0
-9 11 -29 25 -44 14 -15 25 -34 25 -43 0 -9 7 -18 15 -21 8 -4 15 -12 15 -19
0 -7 5 -15 11 -17 6 -2 -29 -39 -77 -83 -49 -43 -107 -96 -129 -118 -22 -21
-47 -43 -55 -47 -11 -6 -78 39 -236 158 l-220 166 54 50 c31 28 84 79 119 114
35 34 66 62 69 62 3 0 32 26 63 58 32 31 76 72 97 89 36 30 39 31 42 13 2 -11
8 -20 13 -20z m-1311 -155 c13 -14 30 -25 37 -25 8 0 16 -7 19 -15 4 -8 13
-15 21 -15 8 0 24 -11 35 -25 11 -14 23 -25 28 -25 5 0 24 -14 42 -30 18 -17
45 -36 61 -43 15 -6 27 -15 27 -19 0 -5 4 -8 9 -8 5 0 23 -13 41 -30 18 -16
36 -30 42 -30 5 0 15 -6 23 -13 10 -11 1 -29 -52 -103 -35 -49 -70 -89 -76
-89 -7 0 -25 27 -42 60 -16 33 -39 74 -50 90 -34 51 -45 69 -56 95 -6 14 -20
38 -33 55 -12 16 -27 41 -34 55 -6 14 -18 34 -24 45 -60 93 -68 123 -18 70z
m1773 -238 c-54 -81 -101 -147 -106 -147 -4 0 -12 11 -17 25 -5 14 -14 25 -20
25 -26 0 -1 32 86 110 52 47 107 96 122 111 15 14 28 24 30 23 1 0 -41 -67
-95 -147z m-163 -117 c0 -11 3 -20 8 -20 4 0 12 -11 18 -24 10 -22 5 -28 -79
-97 -49 -40 -111 -94 -138 -119 -27 -25 -68 -61 -91 -80 -23 -19 -69 -60 -102
-91 -77 -72 -135 -119 -116 -95 8 11 14 27 12 38 -2 10 3 18 10 18 12 0 35 30
155 195 34 46 299 294 316 295 4 0 7 -9 7 -20z"/>
</g>
</svg>
