<?xml version="1.0" standalone="no"?>
<!DOCTYPE svg PUBLIC "-//W3C//DTD SVG 20010904//EN"
 "http://www.w3.org/TR/2001/REC-SVG-20010904/DTD/svg10.dtd">
<svg version="1.0" xmlns="http://www.w3.org/2000/svg"
 width="273.000000pt" height="273.000000pt" viewBox="0 0 273.000000 273.000000"
 preserveAspectRatio="xMidYMid meet">
<metadata>
Created by potrace 1.11, written by Peter Selinger 2001-2013
</metadata>
<g transform="translate(0.000000,273.000000) scale(0.100000,-0.100000)"
fill="#000000" stroke="none">
<path d="M0 1365 l0 -1365 1365 0 1365 0 0 1365 0 1365 -1365 0 -1365 0 0
-1365z m1980 1280 l0 -55 -975 0 -975 0 0 55 0 55 975 0 975 0 0 -55z m720 0
l0 -55 -355 0 -355 0 0 55 0 55 355 0 355 0 0 -55z m-490 -305 l0 -240 -1090
0 -1090 0 0 240 0 240 1090 0 1090 0 0 -240z m488 3 l-3 -238 -237 -3 -238 -2
0 233 c0 129 3 237 7 240 3 4 111 7 240 7 l233 0 -2 -237z m2 -493 l0 -240
-1335 0 -1335 0 0 240 0 240 1335 0 1335 0 0 -240z m-2192 -490 l2 -235 -240
-240 -240 -240 0 235 0 235 238 240 237 240 -237 -235 -238 -235 0 238 0 237
238 -2 237 -3 3 -235z m2192 0 l0 -240 -1090 0 -1090 0 0 240 0 240 1090 0
1090 0 0 -240z m-237 -488 l237 -237 0 -240 0 -240 -238 238 -237 237 -1100 0
-1100 0 240 240 240 240 860 0 860 0 238 -238z m237 8 c0 -126 -1 -230 -3
-230 -1 0 -106 104 -232 230 l-230 230 233 0 232 0 0 -230z m-982 -502 l2
-238 -237 0 -238 0 235 238 235 237 -240 -237 -240 -238 -603 0 -602 0 0 240
0 240 843 -2 842 -3 3 -237z m502 2 l0 -240 -245 0 -245 0 0 240 0 240 245 0
245 0 0 -240z m250 -5 l235 -235 -238 0 -237 0 0 235 c0 129 1 235 3 235 1 0
108 -106 237 -235z m-1500 -295 l0 -50 -470 0 -470 0 0 50 0 50 470 0 470 0 0
-50z m205 0 c-27 -27 -58 -50 -69 -50 -11 0 -43 21 -71 47 l-50 48 45 -47 44
-48 -47 0 -47 0 0 43 c0 24 3 47 7 50 3 4 58 7 122 7 l115 0 -49 -50z m543 -3
l3 -47 -48 0 -47 0 44 47 45 48 -50 -48 -51 -47 -239 0 -239 0 49 50 50 50
240 -2 240 -3 3 -48z m982 3 l0 -50 -485 0 -485 0 0 50 0 50 485 0 485 0 0
-50z"/>
</g>
</svg>
