<?xml version="1.0" standalone="no"?>
<!DOCTYPE svg PUBLIC "-//W3C//DTD SVG 20010904//EN"
 "http://www.w3.org/TR/2001/REC-SVG-20010904/DTD/svg10.dtd">
<svg version="1.0" xmlns="http://www.w3.org/2000/svg"
 width="273.000000pt" height="273.000000pt" viewBox="0 0 273.000000 273.000000"
 preserveAspectRatio="xMidYMid meet">
<metadata>
Created by potrace 1.11, written by Peter Selinger 2001-2013
</metadata>
<g transform="translate(0.000000,273.000000) scale(0.100000,-0.100000)"
fill="#000000" stroke="none">
<path d="M30 2645 l0 -55 975 0 975 0 0 55 0 55 -975 0 -975 0 0 -55z"/>
<path d="M1990 2645 l0 -55 355 0 355 0 0 55 0 55 -355 0 -355 0 0 -55z"/>
<path d="M30 2340 l0 -240 1090 0 1090 0 0 240 0 240 -1090 0 -1090 0 0 -240z"/>
<path d="M2227 2573 c-4 -3 -7 -111 -7 -240 l0 -233 238 2 237 3 3 238 2 237
-233 0 c-129 0 -237 -3 -240 -7z"/>
<path d="M30 1850 l0 -240 1335 0 1335 0 0 240 0 240 -1335 0 -1335 0 0 -240z"/>
<path d="M30 1363 l0 -238 238 235 237 235 -238 -240 -237 -240 0 -235 0 -235
240 240 240 240 -2 235 -3 235 -237 3 -238 2 0 -237z"/>
<path d="M520 1360 l0 -240 1090 0 1090 0 0 240 0 240 -1090 0 -1090 0 0 -240z"/>
<path d="M265 870 l-240 -240 1100 0 1100 0 237 -237 238 -238 0 240 0 240
-237 237 -238 238 -860 0 -860 0 -240 -240z"/>
<path d="M2465 880 c126 -126 231 -230 232 -230 2 0 3 104 3 230 l0 230 -232
0 -233 0 230 -230z"/>
<path d="M30 380 l0 -240 602 0 603 0 240 238 240 237 -235 -237 -235 -238
238 0 237 0 -2 238 -3 237 -842 3 -843 2 0 -240z"/>
<path d="M1730 380 l0 -240 245 0 245 0 0 240 0 240 -245 0 -245 0 0 -240z"/>
<path d="M2230 375 l0 -235 237 0 238 0 -235 235 c-129 129 -236 235 -237 235
-2 0 -3 -106 -3 -235z"/>
<path d="M30 80 l0 -50 470 0 470 0 0 50 0 50 -470 0 -470 0 0 -50z"/>
<path d="M987 123 c-4 -3 -7 -26 -7 -50 l0 -43 47 0 47 0 -44 48 -45 47 50
-48 c28 -26 60 -47 71 -47 11 0 42 23 69 50 l49 50 -115 0 c-64 0 -119 -3
-122 -7z"/>
<path d="M1185 80 l-49 -50 239 0 239 0 51 47 50 48 -45 -48 -44 -47 47 0 48
0 -3 47 -3 48 -240 3 -240 2 -50 -50z"/>
<path d="M1730 80 l0 -50 485 0 485 0 0 50 0 50 -485 0 -485 0 0 -50z"/>
</g>
</svg>
