<?xml version="1.0" standalone="no"?>
<!DOCTYPE svg PUBLIC "-//W3C//DTD SVG 20010904//EN"
 "http://www.w3.org/TR/2001/REC-SVG-20010904/DTD/svg10.dtd">
<svg version="1.0" xmlns="http://www.w3.org/2000/svg"
 width="273.000000pt" height="273.000000pt" viewBox="0 0 273.000000 273.000000"
 preserveAspectRatio="xMidYMid meet">
<metadata>
Created by potrace 1.11, written by Peter Selinger 2001-2013
</metadata>
<g transform="translate(0.000000,273.000000) scale(0.100000,-0.100000)"
fill="#000000" stroke="none">
<path d="M0 1365 l0 -1365 1365 0 1365 0 0 1365 0 1365 -1365 0 -1365 0 0
-1365z m1959 1311 c7 -8 11 -27 9 -43 l-3 -28 -949 -3 c-693 -1 -952 1 -962 9
-14 12 -19 61 -7 72 3 4 433 7 953 7 812 0 949 -2 959 -14z m720 0 c7 -8 11
-27 9 -43 l-3 -28 -329 -3 c-234 -2 -333 1 -342 9 -14 12 -19 61 -7 72 3 4
154 7 333 7 273 0 330 -2 339 -14z m-490 -120 c8 -9 11 -78 9 -227 l-3 -214
-1064 -3 c-778 -1 -1067 1 -1077 9 -11 9 -14 57 -14 224 0 116 3 215 7 218 3
4 484 7 1068 7 890 0 1064 -2 1074 -14z m489 2 c14 -14 18 -393 4 -402 -11 -7
-415 398 -406 407 13 13 389 8 402 -5z m-219 -446 c-140 -2 -206 1 -215 9 -11
9 -14 55 -14 218 l0 206 215 -215 215 -215 -201 -3z m220 -46 c8 -9 11 -78 9
-227 l-3 -214 -1309 -3 c-959 -1 -1312 1 -1322 9 -11 9 -14 57 -14 224 0 116
3 215 7 218 3 4 595 7 1313 7 1098 0 1309 -2 1319 -14z m-2225 -483 c9 -9
-395 -414 -406 -407 -10 6 -11 398 -1 407 9 9 398 9 407 0z m2225 -7 c8 -9 11
-78 9 -227 l-3 -214 -1064 -3 c-778 -1 -1067 1 -1077 9 -11 9 -14 57 -14 224
0 116 3 215 7 218 3 4 484 7 1068 7 890 0 1064 -2 1074 -14z m-2179 -239 l0
-202 -223 -223 c-123 -122 -226 -220 -230 -216 -4 4 -7 98 -7 208 l0 201 222
222 c122 122 225 220 230 217 4 -3 8 -96 8 -207z m1952 -475 l238 -237 0 -207
c0 -114 -4 -209 -8 -212 -5 -3 -107 94 -228 215 l-219 219 -1082 0 c-596 0
-1083 3 -1083 7 0 4 100 108 222 230 l223 223 850 0 850 0 237 -238z m226 226
c14 -14 18 -383 4 -392 -11 -7 -405 388 -396 397 13 13 379 8 392 -5z m-1014
-485 c4 -4 -94 -107 -216 -230 l-223 -223 -580 0 c-439 0 -584 3 -593 12 -13
13 -18 429 -5 441 9 9 1608 9 1617 0z m535 -7 c8 -9 11 -78 9 -227 l-3 -214
-219 -3 c-153 -2 -223 1 -232 9 -11 9 -14 56 -14 224 0 116 3 215 7 218 3 4
104 7 223 7 173 0 220 -3 229 -14z m270 -444 c-140 -2 -206 1 -215 9 -11 9
-14 55 -14 218 l0 206 215 -215 215 -215 -201 -3z m-761 202 l-3 -199 -207 -3
c-115 -1 -208 1 -208 5 0 16 405 412 412 405 5 -5 7 -98 6 -208z m-758 -248
c6 -8 10 -25 8 -38 l-3 -23 -444 -3 c-319 -1 -448 1 -457 9 -15 12 -19 51 -7
62 3 4 205 7 448 7 374 0 444 -2 455 -14z m714 7 c3 -4 -8 -22 -26 -40 l-32
-33 -213 0 c-117 0 -213 3 -213 7 0 4 14 22 32 40 l32 33 206 0 c114 0 210 -3
214 -7z m1016 -7 c6 -8 10 -25 8 -38 l-3 -23 -459 -3 c-330 -1 -463 1 -472 9
-15 12 -19 51 -7 62 3 4 212 7 463 7 387 0 459 -2 470 -14z"/>
</g>
</svg>
